Coordinates
version=1
nRows=9
nColumns=24
inDegrees=yes

Units are S.I. units (second, meters, Newtons, ...)
Angles are in degrees.

endheader
time	pelvis_tilt	pelvis_list	pelvis_rotation	pelvis_tx	pelvis_ty	pelvis_tz	hip_flexion_r	hip_adduction_r	hip_rotation_r	knee_angle_r	ankle_angle_r	subtalar_angle_r	mtp_angle_r	hip_flexion_l	hip_adduction_l	hip_rotation_l	knee_angle_l	ankle_angle_l	subtalar_angle_l	mtp_angle_l	lumbar_extension	lumbar_bending	lumbar_rotation
     22.03333333	     -1.92742484	    -50.63757472	    -83.96393049	      0.23426623	      1.02691090	      0.36362214	     20.31069721	     -8.57102732	    -17.03515723	    -80.39277230	      0.86092935	     -1.38071960	      0.00000000	     30.46939324	     -3.67646663	      4.63419189	    -85.81700817	    -13.06630204	      1.07731275	      0.00000000	    -53.76224353	      7.69218842	    -10.61006186
     22.04166667	     -1.93854608	    -50.61995493	    -83.94137399	      0.23437728	      1.02685020	      0.36363885	     20.32813676	     -8.58400220	    -17.05425571	    -80.39537868	      0.82948376	     -1.42715059	      0.00000000	     30.52034869	     -3.67625530	      4.70573049	    -86.45055582	    -13.04264749	      0.98296167	      0.00000000	    -53.74315899	      7.72828368	    -10.61644437
     22.05000000	     -2.07497495	    -50.50939610	    -83.93046843	      0.23464054	      1.02650224	      0.36383571	     20.43872789	     -8.56184306	    -17.18458748	    -80.41403138	      0.84440934	     -1.40178547	      0.00000000	     30.75549677	     -3.70942302	      4.89232897	    -87.13817356	    -13.13421073	      1.00315665	      0.00000000	    -53.60274769	      7.88735552	    -10.63402960
     22.05833333	     -2.02767573	    -50.54118513	    -83.91780951	      0.23460707	      1.02658255	      0.36378522	     20.40329651	     -8.58335262	    -17.15341036	    -80.41074668	      0.83863886	     -1.41065226	      0.00000000	     30.70818783	     -3.72232756	      4.90592444	    -87.67496693	    -13.18289608	      1.01028237	      0.00000000	    -53.64613241	      7.84287186	    -10.63276446
     22.06666667	     -2.08384486	    -50.50446925	    -83.91564397	      0.23471429	      1.02647163	      0.36384847	     20.43640445	     -8.56083504	    -17.19466648	    -80.40987521	      0.89271324	     -1.40523447	      0.00000000	     30.79177136	     -3.75513747	      5.02516946	    -88.23836160	    -13.15527416	      1.13903355	      0.00000000	    -53.60785633	      7.90181298	    -10.62287275
     22.07500000	     -2.11321996	    -50.46963815	    -83.91731859	      0.23480043	      1.02636395	      0.36386439	     20.48564740	     -8.56106602	    -17.19089033	    -80.41908097	      0.82611885	     -1.36119678	      0.00000000	     30.87230317	     -3.76974248	      5.11885684	    -88.77909570	    -13.20921786	      1.15246188	      0.00000000	    -53.57325673	      7.93668575	    -10.61749650
     22.08333333	     -2.22885611	    -50.39695380	    -83.91038505	      0.23501054	      1.02612124	      0.36401471	     20.55107859	     -8.54239466	    -17.29763089	    -80.42600506	      0.85060726	     -1.35288411	      0.00000000	     31.04771790	     -3.80521227	      5.29570670	    -89.35112346	    -13.22940439	      1.19442289	      0.00000000	    -53.47936672	      8.06829268	    -10.61526940
     22.09166667	     -2.18737845	    -50.42423566	    -83.90439174	      0.23496933	      1.02619638	      0.36396651	     20.52815955	     -8.55931407	    -17.25344136	    -80.42835054	      0.84494047	     -1.35918852	      0.00000000	     31.00545580	     -3.81103692	      5.31626049	    -89.79155541	    -13.25953037	      1.19626053	      0.00000000	    -53.51935359	      8.02810243	    -10.61590884
     22.10000000	     -2.23635561	    -50.37463100	    -83.90156819	      0.23506682	      1.02605114	      0.36403253	     20.58448412	     -8.54263228	    -17.27363089	    -80.43761244	      0.89673081	     -1.36309181	      0.00000000	     31.11058871	     -3.82637962	      5.42908755	    -90.26827163	    -13.32084298	      1.26568685	      0.00000000	    -53.46196418	      8.08398819	    -10.62062270
